<svg width="40" height="40" viewBox="0 0 40 40" fill="none" xmlns="http://www.w3.org/2000/svg">
<path fill-rule="evenodd" clip-rule="evenodd" d="M36.6668 19.9997C36.6668 29.2044 29.2049 36.6663 20.0002 36.6663C10.7954 36.6663 3.3335 29.2044 3.3335 19.9997C3.3335 10.7949 10.7954 3.33301 20.0002 3.33301C29.2049 3.33301 36.6668 10.7949 36.6668 19.9997ZM22.4803 10.7429C23.1471 10.9215 23.5428 11.607 23.3641 12.2738L19.0505 28.3725C18.8718 29.0394 18.1864 29.4351 17.5196 29.2564C16.8527 29.0778 16.457 28.3923 16.6357 27.7255L20.9493 11.6267C21.128 10.9599 21.8134 10.5642 22.4803 10.7429ZM24.9496 14.1158C25.4378 13.6276 26.2292 13.6276 26.7174 14.1158L27.0646 14.463C28.1235 15.5218 29.0065 16.4048 29.6132 17.2C30.2536 18.0393 30.7028 18.9261 30.7028 19.9997C30.7028 21.0732 30.2536 21.96 29.6132 22.7994C29.0065 23.5945 28.1236 24.4775 27.0647 25.5363L26.7174 25.8836C26.2292 26.3717 25.4378 26.3717 24.9496 25.8836C24.4615 25.3954 24.4615 24.604 24.9496 24.1158L25.2356 23.8298C26.3717 22.6937 27.1329 21.9287 27.6257 21.2829C28.0964 20.666 28.2028 20.3068 28.2028 19.9997C28.2028 19.6925 28.0964 19.3334 27.6257 18.7165C27.1329 18.0706 26.3717 17.3056 25.2356 16.1695L24.9496 15.8836C24.4615 15.3954 24.4615 14.604 24.9496 14.1158ZM13.2833 14.1158C13.7714 13.6276 14.5629 13.6276 15.051 14.1158C15.5392 14.604 15.5392 15.3954 15.051 15.8836L14.7651 16.1695C13.629 17.3056 12.8677 18.0706 12.375 18.7165C11.9042 19.3334 11.7979 19.6925 11.7979 19.9997C11.7979 20.3068 11.9042 20.666 12.375 21.2829C12.8677 21.9287 13.629 22.6937 14.7651 23.8298L15.051 24.1158C15.5392 24.604 15.5392 25.3954 15.051 25.8836C14.5629 26.3717 13.7714 26.3717 13.2833 25.8836L12.936 25.5363C11.8771 24.4775 10.9941 23.5946 10.3874 22.7994C9.74702 21.96 9.29785 21.0732 9.29785 19.9997C9.29785 18.9261 9.74702 18.0393 10.3874 17.2C10.9941 16.4048 11.8771 15.5219 12.936 14.463L13.2833 14.1158Z" fill="#E5E5E5"/>
</svg>
