<svg width="40" height="40" viewBox="0 0 40 40" fill="none" xmlns="http://www.w3.org/2000/svg">
<path fill-rule="evenodd" clip-rule="evenodd" d="M17.7783 10.2237L16.9418 9.63171C15.7479 8.78676 14.3212 8.33301 12.8586 8.33301H11.8378C11.1641 8.33301 10.4836 8.37549 9.84874 8.60067C5.87758 10.0091 3.14598 15.1581 3.34356 26.8374C3.38337 29.1906 3.93399 31.7914 6.05721 32.8067C6.71885 33.1231 7.49461 33.333 8.37801 33.333C9.43804 33.333 10.2798 33.0308 10.9296 32.605C11.6109 32.1585 12.2107 31.5781 12.8104 30.998C13.5514 30.2811 14.292 29.5645 15.1856 29.1012C16.1588 28.5965 17.2391 28.333 18.3354 28.333H21.6649C22.7612 28.333 23.8415 28.5965 24.8147 29.1012C25.7083 29.5645 26.449 30.2811 27.19 30.998C27.7896 31.5781 28.3895 32.1585 29.0708 32.605C29.7205 33.0308 30.5623 33.333 31.6223 33.333C32.5057 33.333 33.2815 33.1231 33.9431 32.8067C36.0663 31.7914 36.617 29.1906 36.6568 26.8374C36.8543 15.1581 34.1227 10.0091 30.1516 8.60066C29.5167 8.37549 28.8362 8.33301 28.1626 8.33301H27.1417C25.6791 8.33301 24.2525 8.78676 23.0586 9.63171L22.2221 10.2237C21.5724 10.6835 20.7961 10.9304 20.0002 10.9304C19.2043 10.9304 18.428 10.6835 17.7783 10.2237ZM27.9168 14.9997C28.6072 14.9997 29.1668 15.5593 29.1668 16.2497C29.1668 16.94 28.6072 17.4997 27.9168 17.4997C27.2265 17.4997 26.6668 16.94 26.6668 16.2497C26.6668 15.5593 27.2265 14.9997 27.9168 14.9997ZM12.5002 15.4163C13.1905 15.4163 13.7502 15.976 13.7502 16.6663V17.9163H15.0002C15.6905 17.9163 16.2502 18.476 16.2502 19.1663C16.2502 19.8567 15.6905 20.4163 15.0002 20.4163H13.7502V21.6663C13.7502 22.3567 13.1905 22.9163 12.5002 22.9163C11.8098 22.9163 11.2502 22.3567 11.2502 21.6663V20.4163H10.0002C9.30981 20.4163 8.75016 19.8567 8.75016 19.1663C8.75016 18.476 9.30981 17.9163 10.0002 17.9163H11.2502V16.6663C11.2502 15.976 11.8098 15.4163 12.5002 15.4163ZM31.6668 18.7497C31.6668 19.44 31.1072 19.9997 30.4168 19.9997C29.7265 19.9997 29.1668 19.44 29.1668 18.7497C29.1668 18.0593 29.7265 17.4997 30.4168 17.4997C31.1072 17.4997 31.6668 18.0593 31.6668 18.7497ZM25.4168 19.9997C26.1072 19.9997 26.6668 19.44 26.6668 18.7497C26.6668 18.0593 26.1072 17.4997 25.4168 17.4997C24.7265 17.4997 24.1668 18.0593 24.1668 18.7497C24.1668 19.44 24.7265 19.9997 25.4168 19.9997ZM29.1668 21.2497C29.1668 20.5593 28.6072 19.9997 27.9168 19.9997C27.2265 19.9997 26.6668 20.5593 26.6668 21.2497C26.6668 21.94 27.2265 22.4997 27.9168 22.4997C28.6072 22.4997 29.1668 21.94 29.1668 21.2497Z" fill="#E5E5E5"/>
</svg>
