<svg width="281" height="118" viewBox="0 0 281 118" fill="none" xmlns="http://www.w3.org/2000/svg">
<path d="M2.89798 50C1.91665 50 1.21265 49.5947 0.785975 48.784C0.359305 47.9733 0.316645 47.184 0.657975 46.416L19.474 1.74399C19.9433 0.591991 20.754 0.0159912 21.906 0.0159912C23.0153 0.0159912 23.8047 0.591991 24.274 1.74399L43.154 46.48C43.538 47.2907 43.474 48.08 42.962 48.848C42.4927 49.616 41.81 50 40.914 50C40.402 50 39.9327 49.872 39.506 49.616C39.122 49.36 38.802 48.976 38.546 48.464L20.946 5.77599H22.93L5.20198 48.464C4.98865 48.976 4.66865 49.36 4.24198 49.616C3.85798 49.872 3.40998 50 2.89798 50ZM7.12197 38.096L9.04198 33.808H35.026L36.946 38.096H7.12197ZM64.376 50.32C61.0053 50.32 57.9973 49.552 55.352 48.016C52.7493 46.4373 50.68 44.304 49.144 41.616C47.6507 38.928 46.904 35.8987 46.904 32.528C46.904 29.1147 47.6293 26.064 49.08 23.376C50.5307 20.688 52.5147 18.576 55.032 17.04C57.5493 15.4613 60.4507 14.672 63.736 14.672C66.3387 14.672 68.728 15.184 70.904 16.208C73.1227 17.232 75.064 18.768 76.728 20.816C77.1973 21.328 77.368 21.8827 77.24 22.48C77.112 23.0347 76.7493 23.5253 76.152 23.952C75.6827 24.2933 75.1493 24.4213 74.552 24.336C73.9973 24.208 73.5067 23.888 73.08 23.376C70.6053 20.56 67.4907 19.152 63.736 19.152C61.3467 19.152 59.2347 19.728 57.4 20.88C55.608 22.032 54.2 23.6107 53.176 25.616C52.1947 27.6213 51.704 29.9253 51.704 32.528C51.704 35.088 52.2373 37.3707 53.304 39.376C54.3707 41.3813 55.864 42.96 57.784 44.112C59.704 45.264 61.9013 45.84 64.376 45.84C66.04 45.84 67.5547 45.6267 68.92 45.2C70.328 44.7307 71.5653 44.0267 72.632 43.088C73.144 42.6613 73.6773 42.4267 74.232 42.384C74.7867 42.3413 75.2987 42.512 75.768 42.896C76.28 43.3653 76.5573 43.8987 76.6 44.496C76.6853 45.0933 76.4933 45.6053 76.024 46.032C72.9093 48.8907 69.0267 50.32 64.376 50.32ZM100.519 50C98.2572 50 96.2305 49.4667 94.4385 48.4C92.6892 47.3333 91.3025 45.8827 90.2785 44.048C89.2545 42.1707 88.7425 40.0373 88.7425 37.648V6.35199C88.7425 5.62669 88.9558 5.02929 89.3825 4.55999C89.8518 4.09069 90.4492 3.85599 91.1745 3.85599C91.8998 3.85599 92.4972 4.09069 92.9665 4.55999C93.4358 5.02929 93.6705 5.62669 93.6705 6.35199V37.648C93.6705 39.824 94.3105 41.616 95.5905 43.024C96.8705 44.3893 98.5132 45.072 100.519 45.072H102.247C102.929 45.072 103.484 45.3067 103.911 45.776C104.337 46.2453 104.551 46.8427 104.551 47.568C104.551 48.2933 104.295 48.8907 103.783 49.36C103.271 49.7867 102.631 50 101.863 50H100.519ZM84.5825 20.56C83.9425 20.56 83.4092 20.368 82.9825 19.984C82.5558 19.5573 82.3425 19.0453 82.3425 18.448C82.3425 17.808 82.5558 17.296 82.9825 16.912C83.4092 16.4853 83.9425 16.272 84.5825 16.272H100.903C101.543 16.272 102.076 16.4853 102.503 16.912C102.929 17.296 103.143 17.808 103.143 18.448C103.143 19.0453 102.929 19.5573 102.503 19.984C102.076 20.368 101.543 20.56 100.903 20.56H84.5825ZM116.093 50C115.325 50 114.706 49.7867 114.237 49.36C113.81 48.8907 113.597 48.272 113.597 47.504V17.488C113.597 16.72 113.81 16.1227 114.237 15.696C114.706 15.2267 115.325 14.992 116.093 14.992C116.818 14.992 117.394 15.2267 117.821 15.696C118.29 16.1227 118.525 16.72 118.525 17.488V47.504C118.525 48.272 118.29 48.8907 117.821 49.36C117.394 49.7867 116.818 50 116.093 50ZM116.029 8.33599C115.09 8.33599 114.279 7.99469 113.597 7.31199C112.914 6.62929 112.573 5.79729 112.573 4.81599C112.573 3.74932 112.914 2.91732 113.597 2.31999C114.322 1.67999 115.154 1.35999 116.093 1.35999C116.989 1.35999 117.778 1.67999 118.461 2.31999C119.186 2.91732 119.549 3.74932 119.549 4.81599C119.549 5.79729 119.207 6.62929 118.525 7.31199C117.842 7.99469 117.01 8.33599 116.029 8.33599ZM143.041 50C142.017 50 141.249 49.4453 140.737 48.336L126.529 18.192C126.273 17.6373 126.251 17.0827 126.465 16.528C126.678 15.9733 127.105 15.5467 127.745 15.248C128.342 14.9493 128.918 14.9067 129.473 15.12C130.027 15.3333 130.454 15.7173 130.753 16.272L144.385 45.776H141.76L155.201 16.272C155.457 15.6747 155.883 15.2907 156.481 15.12C157.121 14.9067 157.739 14.928 158.337 15.184C158.934 15.4827 159.339 15.9307 159.553 16.528C159.766 17.0827 159.745 17.616 159.489 18.128L145.473 48.336C144.961 49.4453 144.15 50 143.041 50ZM181.07 50.32C177.614 50.32 174.542 49.5733 171.854 48.08C169.208 46.544 167.117 44.432 165.582 41.744C164.088 39.056 163.342 35.984 163.342 32.528C163.342 29.0293 164.046 25.9573 165.454 23.312C166.904 20.624 168.888 18.512 171.406 16.976C173.923 15.44 176.824 14.672 180.11 14.672C183.352 14.672 186.168 15.4187 188.558 16.912C190.99 18.3627 192.867 20.3893 194.19 22.992C195.512 25.5947 196.174 28.56 196.174 31.888C196.174 32.5707 195.96 33.1253 195.534 33.552C195.107 33.936 194.552 34.128 193.87 34.128H166.67V30.032H194.382L191.63 32.016C191.672 29.5413 191.224 27.3227 190.286 25.36C189.347 23.3973 188.003 21.8613 186.254 20.752C184.547 19.6427 182.499 19.088 180.11 19.088C177.678 19.088 175.544 19.664 173.71 20.816C171.875 21.968 170.446 23.568 169.422 25.616C168.44 27.6213 167.95 29.9253 167.95 32.528C167.95 35.1307 168.504 37.4347 169.614 39.44C170.766 41.4453 172.323 43.024 174.286 44.176C176.248 45.328 178.51 45.904 181.07 45.904C182.606 45.904 184.142 45.648 185.678 45.136C187.256 44.5813 188.515 43.8987 189.454 43.088C189.923 42.704 190.456 42.512 191.054 42.512C191.651 42.4693 192.163 42.6187 192.59 42.96C193.144 43.472 193.422 44.0267 193.422 44.624C193.464 45.2213 193.23 45.7333 192.718 46.16C191.31 47.3547 189.518 48.3573 187.342 49.168C185.166 49.936 183.075 50.32 181.07 50.32Z" fill="white"/>
<path d="M116 9C118.209 9 120 7.20914 120 5C120 2.79086 118.209 1 116 1C113.791 1 112 2.79086 112 5C112 7.20914 113.791 9 116 9Z" fill="#DC5252"/>
<path d="M94.8225 104.64C92.0918 104.64 89.5532 104.256 87.2065 103.488C84.9025 102.677 82.8972 101.547 81.1905 100.096C79.4838 98.645 78.1825 96.96 77.2865 95.04C76.9452 94.357 76.9238 93.7387 77.2225 93.184C77.5638 92.5867 78.1185 92.1813 78.8865 91.968C79.4838 91.7973 80.0598 91.8613 80.6145 92.16C81.2118 92.4587 81.6598 92.9067 81.9585 93.504C82.5985 94.741 83.5372 95.851 84.7745 96.832C86.0118 97.813 87.4838 98.581 89.1905 99.136C90.8972 99.648 92.7745 99.904 94.8225 99.904C97.0838 99.904 99.089 99.541 100.839 98.816C102.588 98.048 103.953 96.96 104.935 95.552C105.959 94.101 106.471 92.352 106.471 90.304C106.471 87.7013 105.511 85.4613 103.591 83.584C101.671 81.7067 98.6625 80.512 94.5665 80C89.5745 79.4027 85.6705 77.8667 82.8545 75.392C80.0385 72.8747 78.6305 69.8027 78.6305 66.176C78.6305 63.5733 79.3132 61.312 80.6785 59.392C82.0865 57.472 84.0065 56 86.4385 54.976C88.8705 53.9093 91.6652 53.376 94.8225 53.376C97.1692 53.376 99.303 53.76 101.223 54.528C103.143 55.2533 104.807 56.2347 106.215 57.472C107.665 58.6667 108.839 59.9893 109.735 61.44C110.161 62.1227 110.289 62.784 110.119 63.424C109.991 64.064 109.628 64.5547 109.031 64.896C108.391 65.1947 107.729 65.2373 107.047 65.024C106.407 64.8107 105.916 64.4053 105.575 63.808C104.935 62.8267 104.124 61.9093 103.143 61.056C102.204 60.16 101.052 59.456 99.687 58.944C98.3212 58.432 96.6785 58.1547 94.7585 58.112C91.3878 58.112 88.6785 58.8373 86.6305 60.288C84.5825 61.696 83.5585 63.7653 83.5585 66.496C83.5585 67.9467 83.9425 69.2907 84.7105 70.528C85.4785 71.7227 86.7372 72.768 88.4865 73.664C90.2785 74.5173 92.6678 75.1573 95.6545 75.584C100.988 76.352 104.935 77.9947 107.495 80.512C110.097 82.9867 111.399 86.2293 111.399 90.24C111.399 92.544 110.972 94.592 110.119 96.384C109.308 98.176 108.135 99.691 106.599 100.928C105.105 102.123 103.335 103.04 101.287 103.68C99.281 104.32 97.1265 104.64 94.8225 104.64ZM124.718 104C123.95 104 123.331 103.787 122.862 103.36C122.435 102.891 122.222 102.272 122.222 101.504V71.488C122.222 70.72 122.435 70.1227 122.862 69.696C123.331 69.2267 123.95 68.992 124.718 68.992C125.443 68.992 126.019 69.2267 126.446 69.696C126.915 70.1227 127.15 70.72 127.15 71.488V101.504C127.15 102.272 126.915 102.891 126.446 103.36C126.019 103.787 125.443 104 124.718 104ZM124.654 62.336C123.715 62.336 122.904 61.9947 122.222 61.312C121.539 60.6293 121.198 59.7973 121.198 58.816C121.198 57.7493 121.539 56.9173 122.222 56.32C122.947 55.68 123.779 55.36 124.718 55.36C125.614 55.36 126.403 55.68 127.086 56.32C127.811 56.9173 128.174 57.7493 128.174 58.816C128.174 59.7973 127.832 60.6293 127.15 61.312C126.467 61.9947 125.635 62.336 124.654 62.336ZM155.122 104.32C151.751 104.32 148.764 103.573 146.162 102.08C143.559 100.544 141.511 98.432 140.018 95.744C138.567 93.056 137.842 89.984 137.842 86.528C137.842 83.0293 138.61 79.936 140.146 77.248C141.682 74.56 143.794 72.4693 146.482 70.976C149.17 69.44 152.22 68.672 155.634 68.672C159.09 68.672 162.14 69.44 164.786 70.976C167.474 72.4693 169.564 74.56 171.058 77.248C172.594 79.936 173.383 83.0293 173.426 86.528L170.546 88.064C170.546 91.2213 169.884 94.037 168.562 96.512C167.239 98.944 165.404 100.864 163.058 102.272C160.754 103.637 158.108 104.32 155.122 104.32ZM155.762 117.824C152.391 117.824 149.426 117.184 146.866 115.904C144.306 114.667 142.194 112.96 140.53 110.784C140.06 110.272 139.847 109.717 139.89 109.12C139.975 108.523 140.295 108.032 140.85 107.648C141.404 107.264 142.023 107.136 142.706 107.264C143.388 107.392 143.922 107.712 144.306 108.224C145.543 109.76 147.122 110.997 149.042 111.936C151.004 112.875 153.266 113.344 155.826 113.344C158.215 113.344 160.37 112.768 162.29 111.616C164.21 110.464 165.724 108.843 166.833 106.752C167.986 104.661 168.562 102.208 168.562 99.392V89.664L170.418 85.952L173.426 86.528V99.584C173.426 103.04 172.658 106.133 171.122 108.864C169.586 111.637 167.495 113.813 164.85 115.392C162.204 117.013 159.175 117.824 155.762 117.824ZM155.634 99.84C158.151 99.84 160.37 99.285 162.29 98.176C164.252 97.024 165.788 95.445 166.898 93.44C168.007 91.4347 168.562 89.1307 168.562 86.528C168.562 83.9253 168.007 81.6213 166.898 79.616C165.788 77.568 164.252 75.9893 162.29 74.88C160.37 73.728 158.151 73.152 155.634 73.152C153.116 73.152 150.876 73.728 148.914 74.88C146.951 75.9893 145.415 77.568 144.306 79.616C143.196 81.6213 142.642 83.9253 142.642 86.528C142.642 89.1307 143.196 91.4347 144.306 93.44C145.415 95.445 146.951 97.024 148.914 98.176C150.876 99.285 153.116 99.84 155.634 99.84ZM213.026 104C212.301 104 211.703 103.765 211.234 103.296C210.765 102.827 210.53 102.251 210.53 101.568V84.928C210.53 82.2827 210.018 80.1067 208.994 78.4C208.013 76.6933 206.647 75.4133 204.898 74.56C203.191 73.7067 201.25 73.28 199.074 73.28C196.983 73.28 195.085 73.6853 193.378 74.496C191.714 75.3067 190.391 76.416 189.41 77.824C188.429 79.232 187.938 80.832 187.938 82.624H184.418C184.503 79.936 185.229 77.5467 186.594 75.456C187.959 73.3227 189.773 71.6587 192.034 70.464C194.295 69.2267 196.813 68.608 199.586 68.608C202.615 68.608 205.325 69.248 207.714 70.528C210.103 71.7653 211.981 73.6 213.346 76.032C214.754 78.464 215.458 81.4293 215.458 84.928V101.568C215.458 102.251 215.223 102.827 214.754 103.296C214.285 103.765 213.709 104 213.026 104ZM185.506 104C184.738 104 184.119 103.787 183.65 103.36C183.223 102.891 183.01 102.293 183.01 101.568V71.488C183.01 70.72 183.223 70.1227 183.65 69.696C184.119 69.2267 184.738 68.992 185.506 68.992C186.231 68.992 186.807 69.2267 187.234 69.696C187.703 70.1227 187.938 70.72 187.938 71.488V101.568C187.938 102.293 187.703 102.891 187.234 103.36C186.807 103.787 186.231 104 185.506 104ZM241.747 104.32C238.461 104.32 235.517 103.552 232.915 102.016C230.312 100.437 228.242 98.304 226.707 95.616C225.213 92.928 224.467 89.8987 224.467 86.528C224.467 83.1147 225.235 80.064 226.771 77.376C228.349 74.688 230.483 72.576 233.171 71.04C235.859 69.4613 238.888 68.672 242.259 68.672C245.629 68.672 248.637 69.4613 251.283 71.04C253.971 72.576 256.083 74.688 257.619 77.376C259.197 80.064 260.008 83.1147 260.051 86.528L258.067 88.064C258.067 91.136 257.341 93.9093 255.891 96.384C254.483 98.816 252.541 100.757 250.067 102.208C247.635 103.616 244.861 104.32 241.747 104.32ZM242.259 99.84C244.733 99.84 246.931 99.264 248.851 98.112C250.813 96.96 252.349 95.381 253.458 93.376C254.611 91.328 255.187 89.0453 255.187 86.528C255.187 83.968 254.611 81.6853 253.458 79.68C252.349 77.6747 250.813 76.096 248.851 74.944C246.931 73.7493 244.733 73.152 242.259 73.152C239.827 73.152 237.629 73.7493 235.667 74.944C233.704 76.096 232.147 77.6747 230.995 79.68C229.843 81.6853 229.267 83.968 229.267 86.528C229.267 89.0453 229.843 91.328 230.995 93.376C232.147 95.381 233.704 96.96 235.667 98.112C237.629 99.264 239.827 99.84 242.259 99.84ZM257.555 104C256.829 104 256.232 103.787 255.763 103.36C255.293 102.891 255.059 102.293 255.059 101.568V90.624L256.275 85.568L260.051 86.528V101.568C260.051 102.293 259.816 102.891 259.347 103.36C258.877 103.787 258.28 104 257.555 104ZM277.187 104C275.48 104 273.944 103.531 272.579 102.592C271.256 101.653 270.211 100.352 269.443 98.688C268.718 97.024 268.355 95.104 268.355 92.928V56.448C268.355 55.7227 268.568 55.1467 268.995 54.72C269.464 54.2507 270.062 54.016 270.787 54.016C271.512 54.016 272.088 54.2507 272.515 54.72C272.984 55.1467 273.219 55.7227 273.219 56.448V92.928C273.219 94.763 273.582 96.256 274.307 97.408C275.075 98.56 276.035 99.136 277.187 99.136H278.787C279.427 99.136 279.939 99.371 280.323 99.84C280.707 100.267 280.899 100.843 280.899 101.568C280.899 102.293 280.622 102.891 280.067 103.36C279.555 103.787 278.872 104 278.019 104H277.187Z" fill="white"/>
<path d="M125 63C127.209 63 129 61.2091 129 59C129 56.7909 127.209 55 125 55C122.791 55 121 56.7909 121 59C121 61.2091 122.791 63 125 63Z" fill="#60B969"/>
</svg>
