<svg width="77" height="77" viewBox="0 0 77 77" fill="none" xmlns="http://www.w3.org/2000/svg">
<path d="M38.7534 7.21875C23.3743 7.21875 10.7315 18.9709 9.49877 33.9549H6.41706C5.44211 33.9549 4.56351 34.5432 4.19218 35.4446C3.82084 36.3461 4.03018 37.3826 4.72229 38.0693L10.1117 43.4165C11.0498 44.3473 12.5631 44.3473 13.5012 43.4165L18.8906 38.0693C19.5827 37.3826 19.7921 36.3461 19.4207 35.4446C19.0494 34.5432 18.1708 33.9549 17.1959 33.9549H14.3313C15.5496 21.6616 26.0032 12.0312 38.7534 12.0312C47.639 12.0312 55.4169 16.7104 59.7253 23.7185C60.4213 24.8506 61.9033 25.2042 63.0354 24.5082C64.1675 23.8122 64.521 22.3302 63.825 21.1981C58.6713 12.815 49.368 7.21875 38.7534 7.21875Z" fill="#E5E5E5"/>
<path d="M66.8657 33.5803C65.9283 32.6538 64.42 32.6538 63.4826 33.5803L58.0726 38.9275C57.3786 39.6135 57.1676 40.6506 57.5384 41.5532C57.9092 42.4558 58.7884 43.0451 59.7642 43.0451H62.6488C61.4256 55.3315 50.9355 64.9688 38.1242 64.9688C29.197 64.9688 21.3866 60.2855 17.0621 53.278C16.3642 52.1471 14.8816 51.796 13.7507 52.494C12.6198 53.1919 12.2688 54.6744 12.9667 55.8054C18.1405 64.1891 27.4767 69.7812 38.1242 69.7812C53.5494 69.7812 66.2443 58.0363 67.4815 43.0451H70.5842C71.5599 43.0451 72.4391 42.4558 72.8099 41.5532C73.1807 40.6506 72.9697 39.6135 72.2757 38.9275L66.8657 33.5803Z" fill="#E5E5E5"/>
</svg>
