<svg width="20" height="20" viewBox="0 0 20 20" fill="none" xmlns="http://www.w3.org/2000/svg">
<path fill-rule="evenodd" clip-rule="evenodd" d="M8.35861 5.39131C8.60269 5.63539 8.60269 6.03112 8.35861 6.27519L5.25888 9.37492L12.0833 9.37492C12.8778 9.37492 14.0556 9.60812 15.0527 10.326C16.0817 11.0669 16.875 12.2962 16.875 14.1666C16.875 14.5118 16.5952 14.7916 16.25 14.7916C15.9048 14.7916 15.625 14.5118 15.625 14.1666C15.625 12.7036 15.0294 11.8496 14.3223 11.3405C13.5833 10.8084 12.6778 10.6249 12.0833 10.6249L5.25888 10.6249L8.35861 13.7246C8.60269 13.9687 8.60269 14.3645 8.35861 14.6085C8.11453 14.8526 7.7188 14.8526 7.47472 14.6085L3.30806 10.4419C3.06398 10.1978 3.06398 9.80205 3.30806 9.55798L7.47472 5.39131C7.7188 5.14723 8.11453 5.14723 8.35861 5.39131Z" fill="#E5E5E5"/>
</svg>
