<svg width="22" height="22" viewBox="0 0 22 22" fill="none" xmlns="http://www.w3.org/2000/svg">
<path d="M12.833 5.50016C12.833 7.52521 11.1914 9.16683 9.16634 9.16683C7.1413 9.16683 5.49967 7.52521 5.49967 5.50016C5.49967 3.47512 7.1413 1.8335 9.16634 1.8335C11.1914 1.8335 12.833 3.47512 12.833 5.50016Z" fill="#E5E5E5"/>
<path d="M16.4997 16.0418C16.4997 18.32 16.4997 20.1668 9.16634 20.1668C1.83301 20.1668 1.83301 18.32 1.83301 16.0418C1.83301 13.7637 5.11625 11.9168 9.16634 11.9168C13.2164 11.9168 16.4997 13.7637 16.4997 16.0418Z" fill="#E5E5E5"/>
<path d="M19.199 8.35674C19.4675 8.08826 19.4675 7.65296 19.199 7.38447C18.9305 7.11598 18.4952 7.11598 18.2267 7.38447L17.4165 8.19471L16.6063 7.38448C16.3378 7.11599 15.9025 7.11599 15.634 7.38448C15.3655 7.65297 15.3655 8.08827 15.634 8.35675L16.4442 9.16698L15.634 9.97719C15.3655 10.2457 15.3655 10.681 15.634 10.9495C15.9025 11.218 16.3378 11.218 16.6063 10.9495L17.4165 10.1392L18.2267 10.9495C18.4952 11.218 18.9305 11.218 19.199 10.9495C19.4675 10.681 19.4675 10.2457 19.199 9.97721L18.3888 9.16698L19.199 8.35674Z" fill="#E5E5E5"/>
</svg>
